<svg width="364" height="61" viewBox="0 0 364 61" fill="none" xmlns="http://www.w3.org/2000/svg">
<path d="M59.256 19.32L53.64 51H41.4L45 30.264L29.088 51L20.448 30.264L16.848 51H4.536L10.152 19.32C10.536 17.112 11.568 15.24 13.248 13.704C14.976 12.168 16.848 11.4 18.864 11.4H24.264L32.544 31.344L47.88 11.4H53.28C55.296 11.4 56.88 12.168 58.032 13.704C59.232 15.24 59.64 17.112 59.256 19.32ZM113.52 11.4L107.904 43.08C107.52 45.288 106.464 47.16 104.736 48.696C103.056 50.232 101.208 51 99.1918 51H62.3278L62.7598 48.336C63.1438 46.128 64.1998 44.256 65.9278 42.72C67.6558 41.184 69.5278 40.416 71.5438 40.416H93.6478C94.3198 40.416 94.9438 40.176 95.5198 39.696C96.0958 39.168 96.4558 38.544 96.5998 37.824L96.8158 36.456H72.2638C70.2478 36.456 68.6398 35.688 67.4398 34.152C66.2878 32.616 65.9038 30.744 66.2878 28.536L69.3118 11.4H81.5518L79.0318 25.944H96.2398C96.9118 25.944 97.5118 25.68 98.0398 25.152C98.6158 24.624 98.9758 24 99.1198 23.28L101.208 11.4H113.52ZM177.759 11.4C179.775 11.4 181.359 12.168 182.511 13.704C183.711 15.24 184.119 17.112 183.735 19.32L182.295 27.456C182.151 28.224 181.767 28.992 181.143 29.76C180.567 30.48 179.919 30.96 179.199 31.2C179.823 31.44 180.303 31.944 180.639 32.712C181.023 33.432 181.143 34.176 180.999 34.944L179.559 43.08C179.175 45.288 178.119 47.16 176.391 48.696C174.663 50.232 172.791 51 170.775 51H133.983L140.967 11.4H177.759ZM167.751 40.416L168.471 36.456H148.815L148.095 40.416H167.751ZM170.271 25.944L170.991 21.984H151.335L150.687 25.944H170.271ZM185.91 51L192.894 11.4H205.134L198.15 51H185.91ZM251.921 40.416L250.121 51H213.257C211.241 51 209.633 50.232 208.433 48.696C207.281 47.16 206.897 45.288 207.281 43.08L212.897 11.4H225.137L220.025 40.416H251.921ZM305.288 40.416L303.488 51H266.624C264.608 51 263 50.232 261.8 48.696C260.648 47.16 260.264 45.288 260.648 43.08L266.264 11.4H278.504L273.392 40.416H305.288ZM361.247 25.944L359.375 36.456L361.247 25.944ZM329.999 21.984L329.279 25.944H361.247L358.223 43.08C358.223 43.128 358.199 43.2 358.151 43.296C358.151 43.344 358.151 43.392 358.151 43.44C357.671 45.552 356.567 47.352 354.839 48.84C353.159 50.28 351.359 51 349.439 51H312.647L314.519 40.416H346.415L347.135 36.456H315.167L318.191 19.32C318.191 19.272 318.191 19.224 318.191 19.176C318.239 19.08 318.263 19.008 318.263 18.96C318.743 16.848 319.823 15.072 321.503 13.632C323.231 12.144 325.055 11.4 326.975 11.4H363.839L361.967 21.984H329.999Z" fill="#1B1B1F"/>
<path d="M127.989 44.5891C127.237 48.231 124.444 51.1824 120.222 51.1824C115.999 51.1824 114.429 48.2352 115.181 44.5891C115.934 40.943 118.726 38 122.948 38C127.171 38 128.729 40.943 127.989 44.5891Z" fill="#DC1637"/>
</svg>
